<svg width="800" height="400" viewBox="0 0 800 400" xmlns="http://www.w3.org/2000/svg"><mask id="satori_om-id"><rect x="0" y="0" width="800" height="400" fill="#fff"/></mask><rect x="0" y="0" width="800" height="400" fill="white"/><mask id="satori_om-id-0"><rect x="42" y="42" width="198" height="24" fill="#fff"/></mask><mask id="satori_om-id-0-0"><rect x="42" y="42" width="24" height="24" fill="#fff"/></mask><rect x="42" y="42" width="24" height="24" fill="black"/><mask id="satori_om-id-0-1"><rect x="74" y="42" width="166" height="24" fill="#fff"/></mask><path fill="black" d="M80.2 61.6L80.2 61.6Q78.5 61.6 77.3 60.9Q76.1 60.2 75.4 59.0Q74.8 57.7 74.8 56.0L74.8 56.0Q74.8 54.3 75.4 53.0Q76.1 51.7 77.3 51.0Q78.5 50.3 80.1 50.3L80.1 50.3Q81.1 50.3 82.1 50.7Q83.0 51.0 83.7 51.7Q84.4 52.4 84.8 53.4Q85.2 54.5 85.2 55.9L85.2 55.9L85.2 56.7L76.0 56.7L76.0 54.8L82.3 54.8Q82.3 54.2 82.1 53.7Q81.8 53.2 81.3 52.9Q80.8 52.6 80.1 52.6L80.1 52.6Q79.4 52.6 78.9 52.9Q78.4 53.2 78.1 53.7Q77.8 54.3 77.8 54.9L77.8 54.9L77.8 56.7Q77.8 57.5 78.1 58.1Q78.4 58.7 78.9 59.0Q79.5 59.3 80.2 59.3L80.2 59.3Q80.7 59.3 81.2 59.2Q81.6 59.0 81.9 58.8Q82.2 58.5 82.3 58.1L82.3 58.1L85.1 58.3Q84.9 59.3 84.3 60.0Q83.6 60.8 82.6 61.2Q81.5 61.6 80.2 61.6ZM89.9 61.4L86.8 61.4L86.8 50.5L89.7 50.5L89.7 52.4L89.9 52.4Q90.2 51.4 91.0 50.9Q91.8 50.3 92.9 50.3L92.9 50.3Q94.0 50.3 94.8 50.9Q95.6 51.4 95.9 52.4L95.9 52.4L96.0 52.4Q96.3 51.5 97.2 50.9Q98.1 50.3 99.3 50.3L99.3 50.3Q100.8 50.3 101.7 51.3Q102.7 52.3 102.7 54.0L102.7 54.0L102.7 61.4L99.7 61.4L99.7 54.6Q99.7 53.7 99.2 53.3Q98.7 52.8 98.0 52.8L98.0 52.8Q97.2 52.8 96.7 53.3Q96.2 53.9 96.2 54.7L96.2 54.7L96.2 61.4L93.3 61.4L93.3 54.6Q93.3 53.8 92.8 53.3Q92.4 52.8 91.6 52.8L91.6 52.8Q91.1 52.8 90.7 53.1Q90.3 53.3 90.1 53.8Q89.9 54.2 89.9 54.8L89.9 54.8L89.9 61.4ZM107.8 61.4L104.8 61.4L104.8 50.5L107.8 50.5L107.8 61.4ZM106.3 49.1L106.3 49.1Q105.6 49.1 105.1 48.6Q104.6 48.2 104.6 47.5L104.6 47.5Q104.6 46.9 105.1 46.4Q105.6 46.0 106.3 46.0L106.3 46.0Q107.0 46.0 107.4 46.4Q107.9 46.9 107.9 47.5L107.9 47.5Q107.9 48.2 107.4 48.6Q107.0 49.1 106.3 49.1ZM112.9 61.4L109.9 61.4L109.9 50.5L112.8 50.5L112.8 52.4L112.9 52.4Q113.2 51.4 113.9 50.8Q114.6 50.3 115.5 50.3L115.5 50.3Q115.8 50.3 116.0 50.3Q116.3 50.4 116.5 50.4L116.5 50.4L116.5 53.1Q116.3 53.0 115.9 53.0Q115.5 52.9 115.2 52.9L115.2 52.9Q114.6 52.9 114.0 53.2Q113.5 53.5 113.2 54.0Q112.9 54.5 112.9 55.2L112.9 55.2L112.9 61.4ZM122.2 61.6L122.2 61.6Q120.5 61.6 119.3 60.9Q118.1 60.2 117.4 58.9Q116.8 57.6 116.8 56.0L116.8 56.0Q116.8 54.3 117.4 53.0Q118.1 51.7 119.3 51.0Q120.5 50.3 122.2 50.3L122.2 50.3Q123.8 50.3 125.0 51.0Q126.2 51.7 126.9 53.0Q127.5 54.3 127.5 56.0L127.5 56.0Q127.5 57.6 126.9 58.9Q126.2 60.2 125.0 60.9Q123.8 61.6 122.2 61.6ZM122.2 59.2L122.2 59.2Q122.9 59.2 123.4 58.8Q123.9 58.4 124.2 57.6Q124.4 56.9 124.4 55.9L124.4 55.9Q124.4 55.0 124.2 54.2Q123.9 53.5 123.4 53.1Q122.9 52.6 122.2 52.6L122.2 52.6Q121.4 52.6 120.9 53.1Q120.4 53.5 120.1 54.2Q119.9 55.0 119.9 55.9L119.9 55.9Q119.9 56.9 120.1 57.6Q120.4 58.4 120.9 58.8Q121.4 59.2 122.2 59.2ZM132.2 55.1L132.2 55.1L132.2 61.4L129.2 61.4L129.2 50.5L132.1 50.5L132.1 52.4L132.2 52.4Q132.5 51.4 133.4 50.9Q134.3 50.3 135.5 50.3L135.5 50.3Q136.6 50.3 137.4 50.8Q138.3 51.3 138.8 52.2Q139.2 53.2 139.2 54.4L139.2 54.4L139.2 61.4L136.2 61.4L136.2 55.0Q136.2 54.0 135.7 53.4Q135.2 52.8 134.3 52.8L134.3 52.8Q133.7 52.8 133.2 53.1Q132.7 53.4 132.5 53.9Q132.2 54.4 132.2 55.1ZM146.2 65.7L146.2 65.7Q144.7 65.7 143.7 65.3Q142.6 64.9 142.0 64.2Q141.4 63.5 141.2 62.7L141.2 62.7L144.0 62.3Q144.1 62.6 144.4 62.9Q144.7 63.2 145.2 63.3Q145.6 63.5 146.3 63.5L146.3 63.5Q147.3 63.5 147.9 63.0Q148.6 62.6 148.6 61.4L148.6 61.4L148.6 59.4L148.4 59.4Q148.2 59.9 147.8 60.3Q147.4 60.7 146.8 61.0Q146.2 61.2 145.3 61.2L145.3 61.2Q144.1 61.2 143.1 60.6Q142.1 60.1 141.5 58.9Q140.9 57.7 140.9 55.9L140.9 55.9Q140.9 54.0 141.5 52.8Q142.1 51.6 143.1 50.9Q144.1 50.3 145.3 50.3L145.3 50.3Q146.2 50.3 146.8 50.6Q147.5 50.9 147.8 51.4Q148.2 51.9 148.4 52.3L148.4 52.3L148.5 52.3L148.5 50.5L151.5 50.5L151.5 61.5Q151.5 62.9 150.9 63.8Q150.2 64.7 149.0 65.2Q147.8 65.7 146.2 65.7ZM146.3 58.9L146.3 58.9Q147.0 58.9 147.5 58.6Q148.0 58.2 148.3 57.5Q148.6 56.8 148.6 55.9L148.6 55.9Q148.6 54.9 148.3 54.2Q148.0 53.5 147.5 53.1Q147.0 52.7 146.3 52.7L146.3 52.7Q145.5 52.7 145.0 53.1Q144.5 53.5 144.2 54.2Q144.0 55.0 144.0 55.9L144.0 55.9Q144.0 56.8 144.2 57.5Q144.5 58.2 145.0 58.6Q145.5 58.9 146.3 58.9ZM158.6 61.6L158.6 61.6Q156.9 61.6 155.7 60.9Q154.5 60.2 153.8 58.9Q153.2 57.6 153.2 56.0L153.2 56.0Q153.2 54.3 153.8 53.0Q154.5 51.7 155.7 51.0Q156.9 50.3 158.6 50.3L158.6 50.3Q160.2 50.3 161.4 51.0Q162.6 51.7 163.3 53.0Q163.9 54.3 163.9 56.0L163.9 56.0Q163.9 57.6 163.3 58.9Q162.6 60.2 161.4 60.9Q160.2 61.6 158.6 61.6ZM158.6 59.2L158.6 59.2Q159.3 59.2 159.8 58.8Q160.3 58.4 160.6 57.6Q160.9 56.9 160.9 55.9L160.9 55.9Q160.9 55.0 160.6 54.2Q160.3 53.5 159.8 53.1Q159.3 52.6 158.6 52.6L158.6 52.6Q157.8 52.6 157.3 53.1Q156.8 53.5 156.5 54.2Q156.3 55.0 156.3 55.9L156.3 55.9Q156.3 56.9 156.5 57.6Q156.8 58.4 157.3 58.8Q157.8 59.2 158.6 59.2ZM168.6 61.4L165.6 61.4L165.6 50.5L168.5 50.5L168.5 52.4L168.6 52.4Q168.9 51.4 169.6 50.8Q170.3 50.3 171.3 50.3L171.3 50.3Q171.5 50.3 171.7 50.3Q172.0 50.4 172.2 50.4L172.2 50.4L172.2 53.1Q172.0 53.0 171.6 53.0Q171.2 52.9 170.9 52.9L170.9 52.9Q170.3 52.9 169.7 53.2Q169.2 53.5 168.9 54.0Q168.6 54.5 168.6 55.2L168.6 55.2L168.6 61.4ZM180.4 56.7L180.4 56.7L180.4 50.5L183.5 50.5L183.5 61.4L180.6 61.4L180.6 59.4L180.4 59.4Q180.1 60.4 179.2 60.9Q178.4 61.5 177.1 61.5L177.1 61.5Q176.0 61.5 175.2 61.0Q174.4 60.5 173.9 59.6Q173.4 58.7 173.4 57.4L173.4 57.4L173.4 50.5L176.5 50.5L176.5 56.9Q176.5 57.8 177.0 58.4Q177.5 59.0 178.4 59.0L178.4 59.0Q178.9 59.0 179.4 58.7Q179.9 58.5 180.2 58.0Q180.4 57.5 180.4 56.7ZM188.6 61.4L185.6 61.4L185.6 50.5L188.5 50.5L188.5 52.4L188.6 52.4Q188.9 51.4 189.6 50.8Q190.3 50.3 191.2 50.3L191.2 50.3Q191.5 50.3 191.7 50.3Q192.0 50.4 192.2 50.4L192.2 50.4L192.2 53.1Q192.0 53.0 191.6 53.0Q191.2 52.9 190.9 52.9L190.9 52.9Q190.2 52.9 189.7 53.2Q189.2 53.5 188.9 54.0Q188.6 54.5 188.6 55.2L188.6 55.2L188.6 61.4ZM193.9 61.6L193.9 61.6Q193.2 61.6 192.7 61.1Q192.2 60.6 192.2 59.9L192.2 59.9Q192.2 59.2 192.7 58.7Q193.2 58.2 193.9 58.2L193.9 58.2Q194.6 58.2 195.1 58.7Q195.6 59.2 195.6 59.9L195.6 59.9Q195.6 60.3 195.4 60.7Q195.2 61.1 194.8 61.3Q194.4 61.6 193.9 61.6ZM202.7 61.6L202.7 61.6Q201.0 61.6 199.8 60.9Q198.6 60.2 198.0 58.9Q197.4 57.6 197.4 56.0L197.4 56.0Q197.4 54.3 198.0 53.0Q198.7 51.8 199.9 51.0Q201.1 50.3 202.7 50.3L202.7 50.3Q204.1 50.3 205.2 50.8Q206.3 51.4 206.9 52.3Q207.5 53.2 207.6 54.5L207.6 54.5L204.7 54.5Q204.6 53.7 204.1 53.2Q203.6 52.7 202.8 52.7L202.8 52.7Q202.1 52.7 201.5 53.1Q201.0 53.4 200.7 54.2Q200.4 54.9 200.4 55.9L200.4 55.9Q200.4 57.0 200.7 57.7Q201.0 58.4 201.5 58.8Q202.1 59.2 202.8 59.2L202.8 59.2Q203.3 59.2 203.7 59.0Q204.1 58.8 204.4 58.4Q204.7 58.0 204.7 57.4L204.7 57.4L207.6 57.4Q207.5 58.6 206.9 59.6Q206.3 60.5 205.2 61.1Q204.2 61.6 202.7 61.6ZM214.2 61.6L214.2 61.6Q212.5 61.6 211.3 60.9Q210.1 60.2 209.4 58.9Q208.8 57.6 208.8 56.0L208.8 56.0Q208.8 54.3 209.4 53.0Q210.1 51.7 211.3 51.0Q212.5 50.3 214.2 50.3L214.2 50.3Q215.8 50.3 217.0 51.0Q218.2 51.7 218.9 53.0Q219.5 54.3 219.5 56.0L219.5 56.0Q219.5 57.6 218.9 58.9Q218.2 60.2 217.0 60.9Q215.8 61.6 214.2 61.6ZM214.2 59.2L214.2 59.2Q214.9 59.2 215.4 58.8Q215.9 58.4 216.2 57.6Q216.4 56.9 216.4 55.9L216.4 55.9Q216.4 55.0 216.2 54.2Q215.9 53.5 215.4 53.1Q214.9 52.6 214.2 52.6L214.2 52.6Q213.4 52.6 212.9 53.1Q212.4 53.5 212.1 54.2Q211.9 55.0 211.9 55.9L211.9 55.9Q211.9 56.9 212.1 57.6Q212.4 58.4 212.9 58.8Q213.4 59.2 214.2 59.2ZM224.2 61.4L221.2 61.4L221.2 50.5L224.1 50.5L224.1 52.4L224.2 52.4Q224.5 51.4 225.3 50.9Q226.1 50.3 227.2 50.3L227.2 50.3Q228.3 50.3 229.1 50.9Q229.9 51.4 230.2 52.4L230.2 52.4L230.3 52.4Q230.6 51.5 231.5 50.9Q232.4 50.3 233.6 50.3L233.6 50.3Q235.1 50.3 236.1 51.3Q237.0 52.3 237.0 54.0L237.0 54.0L237.0 61.4L234.0 61.4L234.0 54.6Q234.0 53.7 233.5 53.3Q233.0 52.8 232.3 52.8L232.3 52.8Q231.5 52.8 231.0 53.3Q230.6 53.9 230.6 54.7L230.6 54.7L230.6 61.4L227.6 61.4L227.6 54.6Q227.6 53.8 227.2 53.3Q226.7 52.8 226.0 52.8L226.0 52.8Q225.5 52.8 225.1 53.1Q224.7 53.3 224.4 53.8Q224.2 54.2 224.2 54.8L224.2 54.8L224.2 61.4Z "/><mask id="satori_om-id-1"><rect x="162" y="152" width="476" height="96" fill="#fff"/></mask><rect x="162" y="152" width="476" height="96" fill="black"/><path fill="white" d="M234.2 214.5L214.5 214.5L214.5 185.5L234.1 185.5L234.1 190.5L220.7 190.5L220.7 197.5L233.1 197.5L233.1 202.5L220.7 202.5L220.7 209.5L234.2 209.5L234.2 214.5ZM244.6 214.5L238.6 214.5L238.6 192.7L244.4 192.7L244.4 196.6L244.6 196.6Q245.3 194.7 246.9 193.6Q248.5 192.4 250.7 192.4L250.7 192.4Q252.9 192.4 254.5 193.6Q256.1 194.7 256.6 196.6L256.6 196.6L256.9 196.6Q257.5 194.7 259.3 193.6Q261.0 192.4 263.4 192.4L263.4 192.4Q266.5 192.4 268.4 194.4Q270.3 196.3 270.3 199.9L270.3 199.9L270.3 214.5L264.3 214.5L264.3 201.1Q264.3 199.2 263.3 198.3Q262.3 197.4 260.9 197.4L260.9 197.4Q259.2 197.4 258.3 198.5Q257.4 199.5 257.4 201.2L257.4 201.2L257.4 214.5L251.5 214.5L251.5 200.9Q251.5 199.3 250.6 198.4Q249.7 197.4 248.2 197.4L248.2 197.4Q247.2 197.4 246.4 197.9Q245.6 198.4 245.1 199.3Q244.6 200.2 244.6 201.4L244.6 201.4L244.6 214.5ZM280.8 214.5L274.8 214.5L274.8 192.7L280.8 192.7L280.8 214.5ZM277.8 189.9L277.8 189.9Q276.4 189.9 275.5 189.0Q274.5 188.1 274.5 186.8L274.5 186.8Q274.5 185.6 275.5 184.7Q276.4 183.8 277.8 183.8L277.8 183.8Q279.1 183.8 280.1 184.7Q281.1 185.6 281.1 186.8L281.1 186.8Q281.1 188.1 280.1 189.0Q279.1 189.9 277.8 189.9ZM291.4 214.5L285.3 214.5L285.3 192.7L291.2 192.7L291.2 196.5L291.4 196.5Q292.0 194.5 293.4 193.5Q294.8 192.4 296.7 192.4L296.7 192.4Q297.1 192.4 297.6 192.5Q298.2 192.5 298.6 192.6L298.6 192.6L298.6 198.0Q298.1 197.9 297.4 197.8Q296.6 197.7 296.0 197.7L296.0 197.7Q294.7 197.7 293.6 198.2Q292.6 198.8 292.0 199.8Q291.4 200.9 291.4 202.2L291.4 202.2L291.4 214.5Z M337.1 200L337.1 200Q337.1 204.8 335.4 208.1Q333.6 211.4 330.5 213.2Q327.4 214.9 323.5 214.9L323.5 214.9Q319.6 214.9 316.6 213.2Q313.5 211.4 311.7 208.1Q309.9 204.7 309.9 200L309.9 200Q309.9 195.2 311.7 191.9Q313.5 188.6 316.6 186.8Q319.6 185.1 323.5 185.1L323.5 185.1Q327.4 185.1 330.5 186.8Q333.6 188.6 335.4 191.9Q337.1 195.2 337.1 200ZM330.9 200L330.9 200Q330.9 196.9 330.0 194.8Q329.1 192.7 327.4 191.6Q325.8 190.5 323.5 190.5L323.5 190.5Q321.3 190.5 319.6 191.6Q318.0 192.7 317.1 194.8Q316.1 196.9 316.1 200L316.1 200Q316.1 203.1 317.1 205.2Q318.0 207.3 319.6 208.4Q321.3 209.5 323.5 209.5L323.5 209.5Q325.8 209.5 327.4 208.4Q329.1 207.3 330.0 205.2Q330.9 203.1 330.9 200ZM319.2 182.5L319.2 182.5Q318.0 182.5 317.1 181.6Q316.2 180.8 316.2 179.6L316.2 179.6Q316.2 178.4 317.1 177.5Q318.0 176.7 319.2 176.7L319.2 176.7Q320.4 176.7 321.3 177.5Q322.1 178.4 322.1 179.6L322.1 179.6Q322.1 180.8 321.3 181.6Q320.4 182.5 319.2 182.5ZM327.9 182.5L327.9 182.5Q326.7 182.5 325.8 181.6Q324.9 180.8 324.9 179.6L324.9 179.6Q324.9 178.4 325.8 177.5Q326.7 176.7 327.9 176.7L327.9 176.7Q329.1 176.7 330.0 177.5Q330.8 178.4 330.8 179.6L330.8 179.6Q330.8 180.8 330.0 181.6Q329.1 182.5 327.9 182.5ZM347.3 201.9L347.3 201.9L347.3 214.5L341.3 214.5L341.3 192.7L347.0 192.7L347.0 196.6L347.3 196.6Q348.0 194.7 349.7 193.6Q351.4 192.4 353.8 192.4L353.8 192.4Q356.1 192.4 357.8 193.4Q359.5 194.4 360.4 196.3Q361.4 198.1 361.4 200.7L361.4 200.7L361.4 214.5L355.3 214.5L355.3 201.7Q355.3 199.7 354.3 198.6Q353.3 197.5 351.4 197.5L351.4 197.5Q350.2 197.5 349.3 198.0Q348.4 198.5 347.8 199.5Q347.3 200.5 347.3 201.9ZM375.6 223.2L375.6 223.2Q372.7 223.2 370.6 222.4Q368.5 221.6 367.3 220.2Q366.0 218.8 365.7 217.1L365.7 217.1L371.3 216.3Q371.5 217.0 372.1 217.6Q372.6 218.1 373.5 218.5Q374.5 218.8 375.8 218.8L375.8 218.8Q377.8 218.8 379.0 217.9Q380.3 216.9 380.3 214.7L380.3 214.7L380.3 210.7L380.1 210.7Q379.7 211.6 378.9 212.4Q378.1 213.2 376.8 213.7Q375.6 214.2 373.9 214.2L373.9 214.2Q371.4 214.2 369.4 213.1Q367.4 211.9 366.2 209.6Q365.0 207.2 365.0 203.6L365.0 203.6Q365.0 199.9 366.2 197.4Q367.4 194.9 369.4 193.7Q371.4 192.4 373.8 192.4L373.8 192.4Q375.7 192.4 376.9 193.1Q378.1 193.7 378.9 194.6Q379.7 195.5 380.1 196.4L380.1 196.4L380.3 196.4L380.3 192.7L386.3 192.7L386.3 214.8Q386.3 217.5 384.9 219.4Q383.6 221.3 381.2 222.2Q378.8 223.2 375.6 223.2ZM375.8 209.7L375.8 209.7Q377.2 209.7 378.2 209.0Q379.3 208.2 379.8 206.9Q380.4 205.5 380.4 203.6L380.4 203.6Q380.4 201.6 379.8 200.2Q379.3 198.8 378.3 198.0Q377.2 197.3 375.8 197.3L375.8 197.3Q374.3 197.3 373.3 198.1Q372.2 198.9 371.7 200.3Q371.2 201.7 371.2 203.6L371.2 203.6Q371.2 205.5 371.7 206.8Q372.2 208.2 373.3 208.9Q374.3 209.7 375.8 209.7ZM400.7 215.0L400.7 215.0Q397.4 215.0 395.0 213.6Q392.6 212.1 391.2 209.6Q389.9 207.1 389.9 203.7L389.9 203.7Q389.9 200.3 391.2 197.8Q392.6 195.3 395.0 193.9Q397.4 192.4 400.7 192.4L400.7 192.4Q404.0 192.4 406.4 193.9Q408.8 195.3 410.1 197.8Q411.4 200.3 411.4 203.7L411.4 203.7Q411.4 207.1 410.1 209.6Q408.8 212.1 406.4 213.6Q404.0 215.0 400.7 215.0ZM400.7 210.3L400.7 210.3Q402.2 210.3 403.2 209.4Q404.2 208.6 404.7 207.1Q405.3 205.6 405.3 203.7L405.3 203.7Q405.3 201.8 404.7 200.3Q404.2 198.8 403.2 197.9Q402.2 197.1 400.7 197.1L400.7 197.1Q399.2 197.1 398.2 197.9Q397.1 198.8 396.6 200.3Q396.1 201.8 396.1 203.7L396.1 203.7Q396.1 205.6 396.6 207.1Q397.1 208.6 398.2 209.4Q399.2 210.3 400.7 210.3ZM396.3 189.7L396.3 189.7Q395.1 189.7 394.2 188.9Q393.4 188.0 393.4 186.8L393.4 186.8Q393.4 185.6 394.2 184.8Q395.1 184.0 396.3 184.0L396.3 184.0Q397.6 184.0 398.4 184.8Q399.3 185.6 399.3 186.8L399.3 186.8Q399.3 188.0 398.4 188.9Q397.6 189.7 396.3 189.7ZM405.0 189.7L405.0 189.7Q403.8 189.7 402.9 188.9Q402.1 188.0 402.1 186.8L402.1 186.8Q402.1 185.6 402.9 184.8Q403.8 184.0 405.0 184.0L405.0 184.0Q406.3 184.0 407.1 184.8Q408.0 185.6 408.0 186.8L408.0 186.8Q408.0 188.0 407.1 188.9Q406.3 189.7 405.0 189.7ZM421.1 214.5L415.0 214.5L415.0 192.7L420.9 192.7L420.9 196.5L421.1 196.5Q421.7 194.5 423.1 193.5Q424.5 192.4 426.4 192.4L426.4 192.4Q426.8 192.4 427.4 192.5Q427.9 192.5 428.3 192.6L428.3 192.6L428.3 198.0Q427.9 197.9 427.1 197.8Q426.4 197.7 425.7 197.7L425.7 197.7Q424.4 197.7 423.3 198.2Q422.3 198.8 421.7 199.8Q421.1 200.9 421.1 202.2L421.1 202.2L421.1 214.5ZM445.1 205.3L445.1 205.3L445.1 192.7L451.1 192.7L451.1 214.5L445.3 214.5L445.3 210.6L445.1 210.6Q444.3 212.5 442.6 213.7Q440.9 214.8 438.5 214.8L438.5 214.8Q436.3 214.8 434.6 213.8Q432.9 212.8 432.0 211.0Q431.1 209.2 431.1 206.6L431.1 206.6L431.1 192.7L437.1 192.7L437.1 205.5Q437.1 207.5 438.2 208.6Q439.2 209.7 440.9 209.7L440.9 209.7Q442.0 209.7 442.9 209.2Q443.9 208.7 444.5 207.7Q445.1 206.7 445.1 205.3ZM436.8 189.7L436.8 189.7Q435.6 189.7 434.7 188.9Q433.8 188.0 433.8 186.8L433.8 186.8Q433.8 185.6 434.7 184.8Q435.6 184.0 436.8 184.0L436.8 184.0Q438.0 184.0 438.9 184.8Q439.8 185.6 439.8 186.8L439.8 186.8Q439.8 188.0 438.9 188.9Q438.0 189.7 436.8 189.7ZM445.5 189.7L445.5 189.7Q444.3 189.7 443.4 188.9Q442.5 188.0 442.5 186.8L442.5 186.8Q442.5 185.6 443.4 184.8Q444.3 184.0 445.5 184.0L445.5 184.0Q446.7 184.0 447.6 184.8Q448.4 185.6 448.4 186.8L448.4 186.8Q448.4 188.0 447.6 188.9Q446.7 189.7 445.5 189.7ZM461.7 214.5L455.6 214.5L455.6 192.7L461.5 192.7L461.5 196.5L461.7 196.5Q462.3 194.5 463.7 193.5Q465.1 192.4 467.0 192.4L467.0 192.4Q467.4 192.4 467.9 192.5Q468.5 192.5 468.9 192.6L468.9 192.6L468.9 198.0Q468.4 197.9 467.7 197.8Q466.9 197.7 466.3 197.7L466.3 197.7Q465.0 197.7 463.9 198.2Q462.9 198.8 462.3 199.8Q461.7 200.9 461.7 202.2L461.7 202.2L461.7 214.5ZM472.7 214.9L472.7 214.9Q471.3 214.9 470.3 213.9Q469.3 212.9 469.3 211.5L469.3 211.5Q469.3 210.1 470.3 209.1Q471.3 208.1 472.7 208.1L472.7 208.1Q474.1 208.1 475.1 209.1Q476.1 210.1 476.1 211.5L476.1 211.5Q476.1 212.4 475.6 213.2Q475.1 214.0 474.4 214.5Q473.6 214.9 472.7 214.9Z M504.7 214.5L492.3 214.5L492.3 185.5L504.0 185.5Q507.2 185.5 509.3 186.4Q511.5 187.4 512.5 189.0Q513.6 190.7 513.6 192.9L513.6 192.9Q513.6 194.6 512.9 195.9Q512.3 197.2 511.1 198.0Q509.9 198.8 508.4 199.2L508.4 199.2L508.4 199.4Q510.0 199.5 511.5 200.4Q512.9 201.3 513.8 202.8Q514.8 204.4 514.8 206.5L514.8 206.5Q514.8 208.8 513.6 210.6Q512.5 212.4 510.2 213.5Q508.0 214.5 504.7 214.5L504.7 214.5ZM498.5 201.8L498.5 209.5L503.5 209.5Q506.0 209.5 507.2 208.5Q508.4 207.5 508.4 205.9L508.4 205.9Q508.4 204.7 507.8 203.8Q507.2 202.8 506.2 202.3Q505.1 201.8 503.6 201.8L503.6 201.8L498.5 201.8ZM498.5 190.4L498.5 197.6L503.0 197.6Q504.3 197.6 505.3 197.2Q506.3 196.7 506.8 195.9Q507.4 195.1 507.4 193.9L507.4 193.9Q507.4 192.4 506.3 191.4Q505.2 190.4 503.1 190.4L503.1 190.4L498.5 190.4ZM518.3 185.5L524.4 185.5L524.4 214.5L518.3 214.5L518.3 185.5ZM538.7 215.0L538.7 215.0Q535.4 215.0 533.0 213.6Q530.6 212.1 529.3 209.6Q528.0 207.1 528.0 203.7L528.0 203.7Q528.0 200.3 529.3 197.8Q530.6 195.3 533.0 193.9Q535.4 192.4 538.7 192.4L538.7 192.4Q542.0 192.4 544.4 193.9Q546.9 195.3 548.2 197.8Q549.5 200.3 549.5 203.7L549.5 203.7Q549.5 207.1 548.2 209.6Q546.9 212.1 544.4 213.6Q542.0 215.0 538.7 215.0ZM538.8 210.3L538.8 210.3Q540.3 210.3 541.3 209.4Q542.3 208.6 542.8 207.1Q543.3 205.6 543.3 203.7L543.3 203.7Q543.3 201.8 542.8 200.3Q542.3 198.8 541.3 197.9Q540.3 197.1 538.8 197.1L538.8 197.1Q537.2 197.1 536.2 197.9Q535.2 198.8 534.7 200.3Q534.1 201.8 534.1 203.7L534.1 203.7Q534.1 205.6 534.7 207.1Q535.2 208.6 536.2 209.4Q537.2 210.3 538.8 210.3ZM562.9 223.2L562.9 223.2Q560.0 223.2 557.9 222.4Q555.8 221.6 554.6 220.2Q553.3 218.8 553.0 217.1L553.0 217.1L558.5 216.3Q558.8 217.0 559.4 217.6Q559.9 218.1 560.8 218.5Q561.7 218.8 563.1 218.8L563.1 218.8Q565.0 218.8 566.3 217.9Q567.6 216.9 567.6 214.7L567.6 214.7L567.6 210.7L567.4 210.7Q567.0 211.6 566.2 212.4Q565.4 213.2 564.1 213.7Q562.9 214.2 561.1 214.2L561.1 214.2Q558.7 214.2 556.7 213.1Q554.7 211.9 553.5 209.6Q552.3 207.2 552.3 203.6L552.3 203.6Q552.3 199.9 553.5 197.4Q554.7 194.9 556.7 193.7Q558.7 192.4 561.1 192.4L561.1 192.4Q563.0 192.4 564.2 193.1Q565.4 193.7 566.2 194.6Q566.9 195.5 567.4 196.4L567.4 196.4L567.6 196.4L567.6 192.7L573.6 192.7L573.6 214.8Q573.6 217.5 572.2 219.4Q570.9 221.3 568.5 222.2Q566.0 223.2 562.9 223.2ZM563.1 209.7L563.1 209.7Q564.5 209.7 565.5 209.0Q566.5 208.2 567.1 206.9Q567.6 205.5 567.6 203.6L567.6 203.6Q567.6 201.6 567.1 200.2Q566.6 198.8 565.5 198.0Q564.5 197.3 563.1 197.3L563.1 197.3Q561.6 197.3 560.5 198.1Q559.5 198.9 559.0 200.3Q558.5 201.7 558.5 203.6L558.5 203.6Q558.5 205.5 559.0 206.8Q559.5 208.2 560.5 208.9Q561.6 209.7 563.1 209.7ZM581.6 214.9L581.6 214.9Q580.2 214.9 579.2 213.9Q578.2 212.9 578.2 211.5L578.2 211.5Q578.2 210.1 579.2 209.1Q580.2 208.1 581.6 208.1L581.6 208.1Q583.0 208.1 584.0 209.1Q585.0 210.1 585.0 211.5L585.0 211.5Q585.0 212.4 584.6 213.2Q584.1 214.0 583.3 214.5Q582.6 214.9 581.6 214.9Z "/></svg>